<svg width="125mm" height="64mm" viewBox="0 0 125 64" xml:space="preserve" xmlns:xlink="http://www.w3.org/1999/xlink" xmlns="http://www.w3.org/2000/svg"><defs><linearGradient id="a"><stop style="stop-color:#03407e;stop-opacity:1" offset="0"/><stop style="stop-color:#0eacfe;stop-opacity:1" offset="1"/></linearGradient><linearGradient xlink:href="#a" id="b" x1="-19.41" y1="81.78" x2="-28.38" y2="139.31" gradientUnits="userSpaceOnUse"/></defs><path style="display:inline;fill:url(#b);fill-opacity:1;stroke-width:.264586" transform="matrix(.26291 -.51496 .51688 .25912 -3.08 -6.37)" d="M-20.09 137a3.75 10.27 0 0 1-3.75 10.27A3.75 10.27 0 0 1-27.6 137a3.75 10.27 0 0 1 3.75-10.27A3.75 10.27 0 0 1-20.1 137zm-10.23-10.6a8.95 6.36 76.95 0 1-8.35-6.93 8.95 6.36 76.95 0 1 3.88-10.4 8.95 6.36 76.95 0 1 8.35 6.92 8.95 6.36 76.95 0 1-3.88 10.4zm-5.75-22.44a13.63 8.65 30.2 0 1-15.7 1.38 13.63 8.65 30.2 0 1-8.29-14.28 13.63 8.65 30.2 0 1 15.71-1.38 13.63 8.65 30.2 0 1 8.28 14.28zm-36.91-22a21.93 8.02 16.97 0 1-18.7-14.06 21.93 8.02 16.97 0 1 23.26-1.32 21.93 8.02 16.97 0 1 18.7 14.07 21.93 8.02 16.97 0 1-23.26 1.32zm56.55 41.86a2 4.96 19.85 0 1-3.57 4 2 4.96 19.85 0 1-.2-5.35 2 4.96 19.85 0 1 3.56-4 2 4.96 19.85 0 1 .2 5.35zm-.77-9.28a3.18 6.01 12.43 0 1-4.4 5.21 3.18 6.01 12.43 0 1-1.83-6.53 3.18 6.01 12.43 0 1 4.4-5.21 3.18 6.01 12.43 0 1 1.83 6.53zm6.96-2.9a2.24 4.9 38.48 0 1-4.8 2.49 2.24 4.9 38.48 0 1 1.24-5.2 2.24 4.9 38.48 0 1 4.81-2.48 2.24 4.9 38.48 0 1-1.25 5.2zm-25.74-25.8a12.75 6.39 19.33 0 1-10.03-10.23 12.75 6.39 19.33 0 1 14.06-1.9 12.75 6.39 19.33 0 1 10.03 10.24 12.75 6.39 19.33 0 1-14.06 1.9zm15.29 18.2a8.22 7.21 52.1 0 1-10.75-2 8.22 7.21 52.1 0 1 .57-10.92 8.22 7.21 52.1 0 1 10.75 1.98 8.22 7.21 52.1 0 1-.57 10.93zm13.69-.92a4.37 6.69 51.64 0 1-8 .85 4.37 6.69 51.64 0 1 2.4-7.57 4.37 6.69 51.64 0 1 8-.85 4.37 6.69 51.64 0 1-2.4 7.57zm10.1-2.28a2.07 5.37 56.77 0 1-5.6 1.2 2.07 5.37 56.77 0 1 3.35-4.67 2.07 5.37 56.77 0 1 5.62-1.2 2.07 5.37 56.77 0 1-3.36 4.67zM-7.9 91.82a9.86 5.26 13.43 0 1-8.44-7.4 9.86 5.26 13.43 0 1 10.76-2.86 9.86 5.26 13.43 0 1 8.44 7.39A9.86 5.26 13.43 0 1-7.9 91.82zm23.34 5.08a9.28 3.63 3.3 0 1-9.02-4.17 9.28 3.63 3.3 0 1 9.5-3.07 9.28 3.63 3.3 0 1 9.02 4.17 9.28 3.63 3.3 0 1-9.5 3.07z"/><g aria-label="Unique Studio" style="font-size:25.4px;line-height:1.05;display:inline;fill:#03407e;stroke-width:.264583"><path style="font-weight:700;font-family:'Noto Sans SC';-inkscape-font-specification:'Noto Sans SC Bold';letter-spacing:.264583px;display:inline" d="M179.73 45.5c1.76 0 3.68-.61 5.26-1.58l-.83-2.28a6.84 6.84 0 0 1-3.4.99c-2.1 0-3.4-1.22-3.25-3.56h8.76c.17-.33.38-1.02.51-1.73.75-3.9-.73-6.78-4.64-6.78-3.38 0-7.18 2.87-8.06 7.47-.9 4.7 1.66 7.47 5.65 7.47zm-1.8-8.92c.68-2.06 2.2-3.12 3.7-3.12 1.84 0 2.47 1.22 2.1 3.12zm-16.6 8.92c1.93 0 3.48-.94 4.98-2.4h.1l-.1 2.04h3.04l2.73-14.22h-3.73l-1.85 9.6c-1.2 1.27-2.06 1.78-3.23 1.78-1.37 0-1.83-.8-1.41-2.97l1.61-8.41h-3.73l-1.7 8.89c-.7 3.55.22 5.69 3.3 5.69zm-13.2 5.1h3.7l3.78-19.68h-2.92l-.57 1.4h-.1a4.04 4.04 0 0 0-3.53-1.76c-3.07 0-6.51 2.85-7.4 7.47-.9 4.67.85 7.47 4.38 7.47 1.4 0 2.93-.71 4.09-1.7l-.57 2.28zm-1.1-8.18c-1.88 0-2.67-1.47-2.1-4.42.55-2.84 2.18-4.37 3.78-4.37.9 0 1.75.28 2.47 1.07l-1.2 6.25c-1.05 1.07-1.96 1.47-2.95 1.47zm-14.48 2.72h3.74l2.73-14.22h-3.74zm5.05-16.5c1.27 0 2.31-.82 2.55-2.07.24-1.22-.5-2.03-1.77-2.03-1.3 0-2.34.82-2.57 2.03-.24 1.25.5 2.06 1.79 2.06zM116 45.13h3.74l1.88-9.78c1.24-1.04 2.08-1.6 3.25-1.6 1.4 0 1.86.76 1.44 2.97l-1.62 8.41h3.74l1.7-8.86c.68-3.58-.23-5.72-3.3-5.72-1.93 0-3.57 1.02-5.05 2.24h-.08l.08-1.88h-3.04zm-11.8.36c4.6 0 7.75-2.57 8.95-8.82l1.99-10.36h-3.6l-2.06 10.7c-.75 3.9-2.43 5.23-4.66 5.23-2.19 0-3.3-1.32-2.55-5.24l2.05-10.69h-3.76l-1.99 10.36c-1.2 6.25 1.05 8.82 5.62 8.82z" transform="translate(6.42 2.98) scale(.5782)"/><path style="font-weight:500;font-size:23.9889px;font-family:'Noto Sans SC';-inkscape-font-specification:'Noto Sans SC Medium';letter-spacing:0;display:inline;fill:#0babfe;fill-opacity:.984314" d="M190.88 73.58c3.26 0 6.6-2.52 7.28-6.9.68-4.4-1.88-6.94-5.14-6.94s-6.6 2.54-7.29 6.93c-.67 4.4 1.89 6.91 5.15 6.91zm.35-2.25c-2.06 0-3.07-1.85-2.64-4.66.43-2.78 2.01-4.65 4.08-4.65 2.08 0 3.09 1.87 2.66 4.65-.43 2.8-2.02 4.66-4.1 4.66zm-12.46 1.94h2.75l2.04-13.2h-2.76zm3.78-15.66c1.01 0 1.83-.65 1.99-1.66.15-.98-.47-1.63-1.48-1.63-1 0-1.8.65-1.95 1.63-.16 1 .44 1.66 1.44 1.66zm-14.39 15.97c1.49 0 2.98-.79 4.12-1.8h.1l-.02 1.49h2.26l2.95-19.12h-2.76l-.76 4.9-.21 2.18c-.94-.91-1.81-1.49-3.32-1.49-2.95 0-6.08 2.66-6.74 6.93-.67 4.4 1.07 6.91 4.38 6.91zm1-2.28c-2.06 0-2.98-1.65-2.52-4.65.44-2.86 2.2-4.6 4.05-4.6.98 0 1.87.3 2.71 1.2l-1 6.45c-1.12 1.1-2.14 1.6-3.24 1.6zm-16.54 2.28c1.8 0 3.23-.91 4.65-2.3h.07l-.1 1.99h2.26l2.04-13.2h-2.76l-1.41 9.17c-1.32 1.39-2.25 1.97-3.47 1.97-1.56 0-2.07-.91-1.72-3.17l1.23-7.96h-2.76l-1.28 8.3c-.52 3.35.42 5.2 3.25 5.2zm-8.95 0c.96 0 1.88-.24 2.67-.48l-.2-2.04c-.4.17-1 .31-1.46.31-1.37 0-1.8-.81-1.55-2.4l1.03-6.69h3.43l.35-2.2h-3.43l.56-3.65h-2.3l-.88 3.65-2.08.14-.32 2.06h1.92l-1.03 6.67c-.43 2.78.31 4.63 3.29 4.63zm-13.07 0c3.86 0 6.56-2.3 7-5.13.4-2.6-.91-3.89-2.86-4.78l-2.27-1.03c-1.35-.57-2.67-1.15-2.44-2.68.22-1.4 1.53-2.26 3.33-2.26 1.56 0 2.69.6 3.64 1.58l1.74-1.77a6.45 6.45 0 0 0-5.01-2.23c-3.36 0-6.13 2.09-6.56 4.87-.4 2.57 1.3 3.9 2.89 4.63l2.28 1.05c1.52.72 2.64 1.23 2.4 2.83-.23 1.5-1.59 2.5-3.72 2.5a5.8 5.8 0 0 1-4.38-2.09L124.7 71a7.52 7.52 0 0 0 5.89 2.6z" transform="translate(6.42 2.98) scale(.5782)"/></g></svg>